<svg width="132" height="132" viewBox="0 0 132 132" fill="none" xmlns="http://www.w3.org/2000/svg">
<path d="M132 0V87C132 111.853 111.853 132 87 132H0L132 0Z" fill="#2D2D2D"/>
<path d="M0 45C0 20.1472 20.1472 0 45 0L132 0L0 132L0 45Z" fill="#ECD509"/>
<path d="M89.7188 81.9339C88.6573 83.8274 86.6558 85 84.485 85L46.5971 85C44.3828 85 42.3484 83.7804 41.305 81.8273L27.4147 55.8276C25.2794 51.8308 28.1754 47.0003 32.7068 47.0003L99.0595 47.0003C103.645 47.0003 106.535 51.9346 104.293 55.9341L89.7188 81.9339Z" fill="#C4C4C4"/>
<path d="M93.2991 24.6932C96.2388 14.5021 98.1316 52.9613 89.5864 53.9416C81.0412 54.9218 76.9576 47.5133 76.9576 47.5133C76.9576 47.5133 89.2066 38.8804 93.2991 24.6932Z" fill="#C4C4C4"/>
<path d="M37.027 24.8389C33.5532 14.8151 33.6914 53.3282 42.2781 53.8566C50.8648 54.3849 54.5527 46.7698 54.5527 46.7698C54.5527 46.7698 41.863 38.7933 37.027 24.8389Z" fill="#C4C4C4"/>
<path d="M41 61.5C41 59.0147 44.8055 57 49.5 57C54.1944 57 58 59.0147 58 61.5C58 63.9853 54.1944 61.5 49.5 61.5C44.8055 61.5 41 63.9853 41 61.5Z" fill="#414141"/>
<path d="M73 61.5C73 59.0147 76.8056 57 81.5 57C86.1944 57 90 59.0147 90 61.5C90 63.9853 86.1944 61.5 81.5 61.5C76.8056 61.5 73 63.9853 73 61.5Z" fill="#414141"/>
<path d="M54.4155 75.0304C55.2034 73.192 57.0111 72 59.0112 72H71.3634C73.2066 72 74.9004 73.0141 75.7708 74.6389L80.0565 82.6389C81.8409 85.9697 79.4278 90 75.6491 90H55.5827C51.9931 90 49.5729 86.3297 50.9869 83.0304L54.4155 75.0304Z" fill="#E8C1C1"/>
<circle cx="60" cy="78" r="3" fill="#41445C"/>
<circle cx="70" cy="78" r="3" fill="#41445C"/>
<path d="M114.158 73.7453C111 76.4258 92.9442 58.4438 92.9442 58.4438L99.6861 48.7801C102.844 46.0995 104.305 50.5488 109.845 57.075C115.385 63.6012 117.316 71.0647 114.158 73.7453Z" fill="#C4C4C4"/>
<path d="M20.8756 77.7678C24.4927 79.8561 39.1538 58.7546 39.1538 58.7546L30.7192 50.3868C27.1022 48.2985 26.4567 52.9762 22.1409 60.4515C17.825 67.9267 17.2586 75.6795 20.8756 77.7678Z" fill="#C4C4C4"/>
</svg>
